<?xml version="1.0" standalone="no"?><!DOCTYPE svg PUBLIC "-//W3C//DTD SVG 1.1//EN" "http://www.w3.org/Graphics/SVG/1.1/DTD/svg11.dtd"><svg t="1688717139725" class="icon" viewBox="0 0 1024 1024" version="1.1" xmlns="http://www.w3.org/2000/svg" p-id="11298" xmlns:xlink="http://www.w3.org/1999/xlink" width="18" height="18"><path d="M608 224v-64a31.168 31.168 0 0 0-8.96-23.04A31.168 31.168 0 0 0 576 128a31.168 31.168 0 0 0-23.04 8.96 31.168 31.168 0 0 0-8.96 23.04v336h27.008a62.784 62.784 0 0 0 36.992-12.032V224zM708.992 384a62.784 62.784 0 0 0-36.992 11.968V384h64V224a31.168 31.168 0 0 0-8.96-23.04A31.168 31.168 0 0 0 704 192a31.168 31.168 0 0 0-23.04 8.96 31.168 31.168 0 0 0-8.96 23.04V384h36.992z m75.008 0c14.016 0 27.136 3.008 39.488 8.96 12.352 6.016 23.04 14.336 32 24.96a88.512 88.512 0 0 1 19.52 76.032l-60.032 324.032a94.528 94.528 0 0 1-32.96 55.488c-17.344 14.272-38.016 21.76-62.08 22.464h-416a98.688 98.688 0 0 1-61.952-22.464 94.464 94.464 0 0 1-33.024-55.488l-59.968-324.032a92.096 92.096 0 0 1 0.96-40.512 88.32 88.32 0 0 1 18.56-35.456c8.96-10.688 19.584-19.008 32-24.96 12.288-6.08 25.408-9.088 39.424-9.024H224V224c0.64-24.704 8.64-45.824 24-63.488s35.2-28.032 59.52-31.04c24.32-3.008 46.08 1.856 65.472 14.528 19.328 12.672 32.64 30.976 40 55.04A96.64 96.64 0 0 1 480 196.928V160c0.64-24.704 8.64-45.824 24-63.488s35.2-28.032 59.52-31.04c24.32-3.008 46.08 1.856 65.472 14.528 19.328 12.672 32.64 30.976 40 55.04a94.464 94.464 0 0 1 88.96 9.472A95.424 95.424 0 0 1 800 224V384h-16 0.064z m-112.96 128c-12.672 15.36-27.712 27.136-44.992 35.456-17.344 8.32-35.712 12.48-55.04 12.544H452.992c-19.328 0-37.632-4.16-55.04-12.544A132.096 132.096 0 0 1 353.088 512H352v-2.048a73.344 73.344 0 0 1-9.984-14.976l-27.008-47.04H240a27.968 27.968 0 0 0-22.016 10.496 25.472 25.472 0 0 0-6.016 23.488L240.96 640h542.016l28.992-158.08a25.472 25.472 0 0 0-6.016-23.488 27.968 27.968 0 0 0-22.016-10.496h-75.008l-27.008 47.04a283.328 283.328 0 0 1-10.048 14.976V512h-0.96 0.128zM480 288a31.168 31.168 0 0 0-8.96-23.04A31.168 31.168 0 0 0 448 256a31.168 31.168 0 0 0-23.04 8.96 31.168 31.168 0 0 0-8.96 23.04v195.968c11.328 8 23.68 12.032 36.992 12.032H480V288zM352 384V224a31.168 31.168 0 0 0-8.96-23.04A31.168 31.168 0 0 0 320 192a31.168 31.168 0 0 0-23.04 8.96 31.168 31.168 0 0 0-8.96 23.04V384h27.008c13.312 0 25.664 3.968 36.992 11.968V384z m-99.008 320l19.008 102.016a37.248 37.248 0 0 0 11.52 18.496 29.888 29.888 0 0 0 20.48 7.488h416a30.016 30.016 0 0 0 20.48-7.488 36.928 36.928 0 0 0 11.52-18.56L771.008 704H252.992z" fill="#000000" p-id="11299"></path></svg>